# xmcd
#
# Track frame offsets:
#	150
#	19147
#	36910
#	51070
#	65261
#	85094
#	100931
#	114419
#	132973
#	157777
#	178418
#	195560
#	214312
#
# Disc length: 3026 seconds
#
# Revision: 1
# Processed by: cddbd v1.4PL0 Copyright (c) Steve Scherf et al.
# Submitted via: audiograbber 1.82.02
#
DISCID=ad0bd00d
DTITLE=Steve Wariner - Faith In You
DYEAR=2000
DGENRE=Country
TTITLE0=High Time
TTITLE1=Faith In You
TTITLE2=I Just Do
TTITLE3=Katie Wants A Fast One
TTITLE4=Turn In The Road
TTITLE5=Make It Look Easy
TTITLE6=It Wouldn't Be Love
TTITLE7=Waiting In The Wings
TTITLE8=Been There
TTITLE9=Longer Letter Later
TTITLE10=Blinded
TTITLE11=I Wish I Were A Train
TTITLE12=Bloodlines
EXTD=
EXTT0=
EXTT1=
EXTT2=
EXTT3=
EXTT4=
EXTT5=
EXTT6=
EXTT7=
EXTT8=
EXTT9=
EXTT10=
EXTT11=
EXTT12=
PLAYORDER=
